<?xml version="1.0" standalone="no"?>
<!DOCTYPE svg PUBLIC "-//W3C//DTD SVG 20010904//EN"
 "http://www.w3.org/TR/2001/REC-SVG-20010904/DTD/svg10.dtd">
<svg version="1.0" xmlns="http://www.w3.org/2000/svg"
 width="250.000000pt" height="150.000000pt" viewBox="0 0 250.000000 150.000000"
 preserveAspectRatio="xMidYMid meet">

<g transform="translate(0.000000,150.000000) scale(0.100000,-0.100000)"
fill="#000000" stroke="none">
<path d="M476 913 c-8 -27 -66 -343 -66 -360 0 -10 10 -13 38 -11 34 3 37 6
42 38 4 31 9 35 36 38 29 3 32 1 38 -37 6 -39 8 -41 41 -41 44 0 44 -6 2 215
l-33 170 -46 3 c-38 2 -47 0 -52 -15z m67 -195 c6 -43 5 -48 -13 -48 -22 0
-24 15 -13 96 5 41 8 45 13 24 4 -14 10 -46 13 -72z"/>
<path d="M1304 915 c-38 -26 -46 -65 -42 -200 3 -125 3 -127 31 -151 22 -19
40 -24 81 -24 73 0 97 20 104 88 l5 52 -42 0 -41 0 0 -39 c0 -42 -13 -54 -42
-39 -16 7 -18 24 -18 123 0 62 3 120 6 129 3 9 17 16 30 16 21 0 24 -4 24 -40
l0 -40 40 0 40 0 0 45 c0 66 -31 95 -102 95 -31 0 -62 -6 -74 -15z"/>
<path d="M1780 900 c-11 -11 -20 -33 -20 -49 0 -16 -6 -31 -15 -35 -8 -3 -15
-15 -15 -26 0 -11 7 -20 15 -20 12 0 15 -19 15 -115 l0 -115 40 0 40 0 0 115
c0 96 3 115 15 115 9 0 15 9 15 25 0 16 -6 25 -15 25 -8 0 -15 9 -15 20 0 11
7 20 15 20 10 0 15 10 15 30 0 28 -3 30 -35 30 -22 0 -43 -8 -55 -20z"/>
<path d="M654 803 c3 -10 21 -74 40 -142 36 -126 35 -151 0 -151 -8 0 -14 -10
-14 -25 0 -20 5 -25 26 -25 32 0 61 15 73 39 11 20 71 280 71 307 0 11 -8 14
-32 12 -32 -3 -33 -4 -44 -71 -6 -37 -13 -69 -16 -72 -3 -3 -10 21 -17 52 -20
95 -19 93 -57 93 -29 0 -34 -3 -30 -17z"/>
<path d="M908 800 c-32 -25 -43 -70 -17 -70 9 0 24 -2 31 -5 9 -4 19 4 26 20
14 30 32 25 32 -10 0 -19 -10 -28 -44 -44 -49 -21 -66 -45 -66 -89 0 -34 27
-62 60 -62 13 0 32 7 42 17 17 15 18 15 18 0 0 -13 9 -17 36 -17 33 0 36 2 30
23 -3 12 -6 65 -6 118 0 82 -3 98 -20 117 -27 29 -88 30 -122 2z m72 -165 c0
-38 -3 -45 -20 -45 -15 0 -20 7 -20 27 0 22 24 63 37 63 1 0 3 -20 3 -45z"/>
<path d="M1558 806 c-16 -11 -42 -65 -36 -71 2 -2 17 -6 34 -9 28 -6 32 -4 38
19 8 32 30 28 34 -7 2 -20 -3 -28 -28 -38 -59 -24 -80 -48 -80 -90 0 -22 7
-45 16 -54 20 -20 73 -21 80 -1 4 8 10 15 15 15 5 0 9 -7 9 -15 0 -10 10 -15
30 -15 l30 0 0 114 c0 99 -3 117 -21 140 -16 21 -29 26 -62 26 -23 0 -50 -6
-59 -14z m63 -209 c-14 -14 -41 -1 -41 20 0 9 10 28 23 41 l22 24 3 -37 c2
-21 -1 -42 -7 -48z"/>
<path d="M1929 791 c-27 -27 -29 -35 -29 -106 0 -79 16 -127 45 -139 32 -12
93 -6 115 12 14 11 22 30 23 52 2 32 0 35 -30 38 -28 3 -32 0 -35 -25 -2 -17
-10 -29 -20 -31 -15 -3 -18 4 -18 42 l0 46 55 0 c54 0 55 1 55 29 0 41 -19 90
-40 101 -38 20 -90 12 -121 -19z m89 -54 c3 -22 -1 -27 -17 -27 -15 0 -21 6
-21 23 0 46 33 49 38 4z"/>
<path d="M1097 704 c-4 -4 -7 -16 -7 -26 0 -16 9 -18 66 -18 62 0 65 1 62 23
-3 19 -10 22 -58 25 -31 2 -59 0 -63 -4z"/>
</g>
</svg>
